<?xml version="1.0" encoding="UTF-8"?>
<svg xmlns="http://www.w3.org/2000/svg" xmlns:xlink="http://www.w3.org/1999/xlink" width="119.055pt" height="119.454pt" viewBox="0 0 119.055 119.454" version="1.1">
<defs>
<clipPath id="clip1">
  <path d="M 31 0 L 88 0 L 88 119.453125 L 31 119.453125 Z M 31 0 "/>
</clipPath>
</defs>
<g id="surface1">
<path style=" stroke:none;fill-rule:nonzero;fill:rgb(50%,50%,50%);fill-opacity:1;" d="M 6.820312 37.050781 L 112.234375 37.050781 C 114.4375 37.050781 116.222656 35.265625 116.222656 33.0625 L 116.222656 21.191406 C 116.222656 18.992188 114.4375 17.207031 112.234375 17.207031 L 6.820312 17.207031 C 4.617188 17.207031 2.835938 18.992188 2.835938 21.191406 L 2.835938 33.0625 C 2.835938 35.265625 4.617188 37.050781 6.820312 37.050781 Z M 6.820312 37.050781 "/>
<path style=" stroke:none;fill-rule:nonzero;fill:rgb(50%,50%,50%);fill-opacity:1;" d="M 6.820312 102.246094 L 112.234375 102.246094 C 114.4375 102.246094 116.222656 100.460938 116.222656 98.261719 L 116.222656 86.390625 C 116.222656 84.1875 114.4375 82.402344 112.234375 82.402344 L 6.820312 82.402344 C 4.617188 82.402344 2.835938 84.1875 2.835938 86.390625 L 2.835938 98.261719 C 2.835938 100.460938 4.617188 102.246094 6.820312 102.246094 Z M 6.820312 102.246094 "/>
<path style=" stroke:none;fill-rule:nonzero;fill:rgb(34.999084%,34.999084%,100%);fill-opacity:1;" d="M 40.835938 116.421875 L 78.21875 116.421875 C 80.421875 116.421875 82.207031 114.636719 82.207031 112.433594 L 82.207031 7.019531 C 82.207031 4.816406 80.421875 3.03125 78.21875 3.03125 L 40.835938 3.03125 C 38.632812 3.03125 36.851562 4.816406 36.851562 7.019531 L 36.851562 112.433594 C 36.851562 114.636719 38.632812 116.421875 40.835938 116.421875 Z M 40.835938 116.421875 "/>
<g clip-path="url(#clip1)" clip-rule="nonzero">
<path style="fill:none;stroke-width:0.3985;stroke-linecap:butt;stroke-linejoin:miter;stroke:rgb(0%,0%,0%);stroke-opacity:1;stroke-miterlimit:10;" d="M 9.654937 -0.001875 L 47.03775 -0.001875 C 49.240875 -0.001875 51.026031 1.783281 51.026031 3.986406 L 51.026031 109.400469 C 51.026031 111.603594 49.240875 113.38875 47.03775 113.38875 L 9.654937 113.38875 C 7.451812 113.38875 5.670562 111.603594 5.670562 109.400469 L 5.670562 3.986406 C 5.670562 1.783281 7.451812 -0.001875 9.654937 -0.001875 Z M 9.654937 -0.001875 " transform="matrix(1,0,0,-1,31.181,116.42)"/>
</g>
</g>
</svg>
